<svg xmlns="http://www.w3.org/2000/svg" width="75" height="95" viewBox="0 0 75 95">
  <path id="task_FILL0_wght400_GRAD0_opsz48" d="M75.969,99H15.031a6.7,6.7,0,0,1-4.922-2.138A6.88,6.88,0,0,1,8,91.875V11.125a6.88,6.88,0,0,1,2.109-4.988A6.7,6.7,0,0,1,15.031,4h42.3L83,30.006V91.875a6.88,6.88,0,0,1-2.109,4.987A6.7,6.7,0,0,1,75.969,99ZM53.82,33.212V11.125H15.031v80.75H75.969V33.212ZM40.109,78.219,66.945,51.025l-4.57-4.631L40.109,68.956,28.039,56.725l-4.57,4.631ZM15.031,11.125v80.75h0V11.125Z" transform="translate(-8 -4)" fill="#386bfd"/>
</svg>
