<svg xmlns="http://www.w3.org/2000/svg" width="75" height="95" viewBox="0 0 75 95">
  <g id="그룹_194" data-name="그룹 194" transform="translate(-460 -1092.681)">
    <path id="description_FILL0_wght400_GRAD0_opsz48" d="M26.633,78.813H64.367V71.688H26.633Zm0-20.187H64.367V51.5H26.633ZM15.031,99a6.7,6.7,0,0,1-4.922-2.138A6.88,6.88,0,0,1,8,91.875V11.125a6.88,6.88,0,0,1,2.109-4.988A6.7,6.7,0,0,1,15.031,4h42.3L83,30.006V91.875a6.88,6.88,0,0,1-2.109,4.987A6.7,6.7,0,0,1,75.969,99ZM53.82,33.212V11.125H15.031v80.75H75.969V33.212ZM15.031,11.125v80.75h0V11.125Z" transform="translate(452 1088.681)" fill="#386bfd"/>
  </g>
</svg>
