<svg xmlns="http://www.w3.org/2000/svg" width="100" height="90" viewBox="0 0 100 90">
  <path id="handshake_FILL0_wght400_GRAD0_opsz48" d="M51.432,87.292a3.736,3.736,0,0,0,1.307-.282,3.375,3.375,0,0,0,1.193-.732l38.3-38.073a9.676,9.676,0,0,0,2.216-3.323,10.139,10.139,0,0,0,.739-3.773,10.575,10.575,0,0,0-.739-3.83A9.55,9.55,0,0,0,92.227,33.9L71.773,13.624a9.651,9.651,0,0,0-3.409-2.2A10.835,10.835,0,0,0,64.5,10.7a10.387,10.387,0,0,0-3.807.732,9.775,9.775,0,0,0-3.352,2.2L55.3,15.652l9.2,9.237a17.749,17.749,0,0,1,2.614,3.661,9.374,9.374,0,0,1,1.136,4.562A10.24,10.24,0,0,1,64.9,40.658a10.688,10.688,0,0,1-7.67,3.267,11.5,11.5,0,0,1-4.716-.845,11.807,11.807,0,0,1-3.466-2.422l-8.3-8.223L20.182,52.823a3.263,3.263,0,0,0-.8,1.183,3.731,3.731,0,0,0-.227,1.3,3.267,3.267,0,0,0,.966,2.422,3.327,3.327,0,0,0,2.443.957,2.711,2.711,0,0,0,1.307-.338,4.687,4.687,0,0,0,1.08-.788L40.636,42.01l4.773,4.731L29.841,62.173a3.158,3.158,0,0,0-.8,1.239,4.219,4.219,0,0,0-.227,1.352,3.228,3.228,0,0,0,1.023,2.365,3.285,3.285,0,0,0,2.386,1.014,3.146,3.146,0,0,0,1.307-.282,3.64,3.64,0,0,0,1.08-.732L50.3,51.584l4.773,4.731L39.5,71.747a3.337,3.337,0,0,0-.739,1.183,3.886,3.886,0,0,0-.284,1.408A3.228,3.228,0,0,0,39.5,76.7a3.285,3.285,0,0,0,2.386,1.014,3.363,3.363,0,0,0,1.25-.225,3.464,3.464,0,0,0,1.136-.788L59.955,61.159l4.773,4.731L49.045,81.434a3.158,3.158,0,0,0-.8,1.239,3.916,3.916,0,0,0-.227,1.239,3.332,3.332,0,0,0,.909,2.478A3.4,3.4,0,0,0,51.432,87.292Zm0,6.758a9.56,9.56,0,0,1-6.7-2.76A11.178,11.178,0,0,1,41.2,84.476a11.243,11.243,0,0,1-6.477-3.154A11.07,11.07,0,0,1,31.545,74.9a10.827,10.827,0,0,1-6.42-3.21A11.419,11.419,0,0,1,22,65.327a11.456,11.456,0,0,1-6.932-3.379,9.369,9.369,0,0,1-2.727-6.758,10.575,10.575,0,0,1,.739-3.83A9.55,9.55,0,0,1,15.3,47.98L40.75,22.748l12.5,12.39a7.114,7.114,0,0,0,1.989,1.408,4.929,4.929,0,0,0,2.1.507,3.924,3.924,0,0,0,2.784-1.3A3.861,3.861,0,0,0,61.432,33a3.63,3.63,0,0,0-.4-1.521,6.337,6.337,0,0,0-1.307-1.746L43.477,13.624a9.651,9.651,0,0,0-3.409-2.2A10.835,10.835,0,0,0,36.2,10.7a10.387,10.387,0,0,0-3.807.732,9.775,9.775,0,0,0-3.352,2.2L11.773,30.746a8.979,8.979,0,0,0-2.216,3.323,13.637,13.637,0,0,0-.739,3.886,9.081,9.081,0,0,0,.852,4.337A18.089,18.089,0,0,0,12,46.065L7.114,50.909a19.725,19.725,0,0,1-3.693-5.97A18.683,18.683,0,0,1,2,37.842a16.5,16.5,0,0,1,1.307-6.477A16.831,16.831,0,0,1,7,25.9L24.159,8.894a15.846,15.846,0,0,1,5.682-3.661A18.457,18.457,0,0,1,36.318,4.05a18,18,0,0,1,6.42,1.183,15.962,15.962,0,0,1,5.625,3.661l2.045,2.028,2.045-2.028a15.846,15.846,0,0,1,5.682-3.661A18.457,18.457,0,0,1,64.614,4.05a18,18,0,0,1,6.42,1.183,15.962,15.962,0,0,1,5.625,3.661L97,29.056a16.353,16.353,0,0,1,3.75,5.632A17.29,17.29,0,0,1,102,41.109a16.861,16.861,0,0,1-1.25,6.364A16.494,16.494,0,0,1,97,53.049L58.7,91.009a10.518,10.518,0,0,1-3.352,2.253A10.013,10.013,0,0,1,51.432,94.05ZM40.3,32.548Z" transform="translate(-2 -4.05)" fill="#386bfd"/>
</svg>
