<svg xmlns="http://www.w3.org/2000/svg" width="102" height="80" viewBox="0 0 102 80">
  <path id="supervisor_account_FILL0_wght400_GRAD0_opsz48" d="M81.01,60.48a11.491,11.491,0,0,1-8.479-3.543,12.219,12.219,0,0,1,0-17.134,11.918,11.918,0,0,1,16.958,0,12.219,12.219,0,0,1,0,17.134A11.491,11.491,0,0,1,81.01,60.48ZM56.02,88.95V82.38a11.111,11.111,0,0,1,1.4-5.733,9.388,9.388,0,0,1,3.952-3.671,41.914,41.914,0,0,1,9.562-3.607A43.136,43.136,0,0,1,81.01,68.209a45.559,45.559,0,0,1,10.073,1.1,36.882,36.882,0,0,1,9.563,3.672,8.515,8.515,0,0,1,3.952,3.607,11.466,11.466,0,0,1,1.4,5.8v6.57ZM44.8,47.6a18.537,18.537,0,0,1-13.77-5.411q-5.355-5.411-5.355-13.913T31.03,14.361A18.537,18.537,0,0,1,44.8,8.95a18.537,18.537,0,0,1,13.77,5.411q5.355,5.411,5.355,13.913T58.57,42.187A18.537,18.537,0,0,1,44.8,47.6ZM4,88.95V76.841a15.55,15.55,0,0,1,2.167-8.052,13.814,13.814,0,0,1,6.5-5.6,95.177,95.177,0,0,1,16.384-5.8A65.585,65.585,0,0,1,44.8,55.456a60.951,60.951,0,0,1,7.267.386q3.188.386,6.885,1.159l-6.5,6.57a29.821,29.821,0,0,0-3.57-.322q-1.913-.064-4.08-.064a67.09,67.09,0,0,0-14.153,1.481A64.327,64.327,0,0,0,15.73,70.142,7.164,7.164,0,0,0,12.8,72.976a7.513,7.513,0,0,0-1.148,3.865v4.38H48.37V88.95Zm44.37-7.729ZM44.8,39.868a11.085,11.085,0,0,0,8.224-3.285,11.324,11.324,0,0,0,3.251-8.309,11.324,11.324,0,0,0-3.251-8.309A11.085,11.085,0,0,0,44.8,16.679a11.085,11.085,0,0,0-8.224,3.285,11.324,11.324,0,0,0-3.251,8.309,11.324,11.324,0,0,0,3.251,8.309A11.085,11.085,0,0,0,44.8,39.868Zm0-11.594Z" transform="translate(-4 -8.95)" fill="#386bfd"/>
</svg>
